<?xml version="1.0" encoding="UTF-8" standalone="no"?>
<!DOCTYPE svg PUBLIC "-//W3C//DTD SVG 1.1//EN" "http://www.w3.org/Graphics/SVG/1.1/DTD/svg11.dtd">
<svg width="100%" height="100%" viewBox="0 0 11112 2167" version="1.1" xmlns="http://www.w3.org/2000/svg" xmlns:xlink="http://www.w3.org/1999/xlink" xml:space="preserve" xmlns:serif="http://www.serif.com/" style="fill-rule:evenodd;clip-rule:evenodd;stroke-linejoin:round;stroke-miterlimit:2;">
    <g transform="matrix(5.55556,0,0,5.55556,0,0)">
        <g transform="matrix(0.835125,0,0,0.835125,-177.073,-534.407)">
            <g transform="matrix(447.345,0,0,447.345,211.692,987.931)">
                <path d="M0.065,0.12L0.065,-0.75L0.328,-0.75L0.318,-0.625L0.234,-0.625L0.234,-0.005L0.318,-0.005L0.328,0.12L0.065,0.12Z" style="fill-rule:nonzero;"/>
            </g>
            <g transform="matrix(447.345,0,0,447.345,365.131,987.931)">
                <path d="M0.379,0.125L0.379,0.25L0.015,0.25L0.015,0.125L0.087,0.117L0.087,-0.366L0.015,-0.366L0.015,-0.491L0.282,-0.542L0.282,-0.486C0.301,-0.499 0.325,-0.512 0.353,-0.524C0.381,-0.536 0.412,-0.542 0.445,-0.542C0.486,-0.542 0.52,-0.531 0.549,-0.51C0.578,-0.488 0.6,-0.457 0.616,-0.417C0.631,-0.376 0.639,-0.328 0.639,-0.273C0.639,-0.225 0.633,-0.184 0.621,-0.151C0.609,-0.118 0.593,-0.09 0.574,-0.069C0.554,-0.048 0.533,-0.031 0.51,-0.02C0.487,-0.008 0.464,0 0.441,0.005C0.418,0.01 0.398,0.012 0.38,0.012C0.363,0.012 0.347,0.01 0.332,0.007C0.317,0.004 0.304,-0.001 0.292,-0.006L0.292,0.116L0.379,0.125ZM0.358,-0.388C0.346,-0.388 0.334,-0.387 0.323,-0.384C0.312,-0.381 0.301,-0.378 0.292,-0.375L0.292,-0.172C0.299,-0.165 0.309,-0.159 0.32,-0.155C0.331,-0.15 0.344,-0.148 0.357,-0.148C0.372,-0.148 0.384,-0.152 0.395,-0.159C0.406,-0.166 0.414,-0.178 0.42,-0.196C0.426,-0.214 0.429,-0.24 0.429,-0.274C0.429,-0.319 0.423,-0.349 0.411,-0.365C0.399,-0.38 0.381,-0.388 0.358,-0.388Z" style="fill-rule:nonzero;"/>
            </g>
            <g transform="matrix(447.345,0,0,447.345,666.642,987.931)">
                <path d="M0.706,-0.125L0.706,-0L0.429,-0L0.429,-0.284C0.429,-0.321 0.425,-0.347 0.418,-0.361C0.41,-0.375 0.396,-0.382 0.376,-0.382C0.365,-0.382 0.353,-0.38 0.34,-0.376C0.327,-0.372 0.312,-0.366 0.297,-0.357L0.297,-0.133L0.364,-0.125L0.364,-0L0.02,-0L0.02,-0.125L0.092,-0.133L0.092,-0.586L0.02,-0.586L0.02,-0.711L0.297,-0.762L0.297,-0.481C0.322,-0.501 0.348,-0.516 0.377,-0.527C0.405,-0.537 0.434,-0.542 0.463,-0.542C0.495,-0.542 0.524,-0.536 0.55,-0.523C0.576,-0.509 0.596,-0.49 0.612,-0.465C0.627,-0.439 0.634,-0.406 0.634,-0.367L0.634,-0.133L0.706,-0.125Z" style="fill-rule:nonzero;"/>
            </g>
            <g transform="matrix(447.345,0,0,447.345,982.467,987.931)">
                <path d="M0.317,0.012C0.26,0.012 0.21,0.001 0.167,-0.023C0.124,-0.046 0.091,-0.078 0.068,-0.12C0.044,-0.161 0.032,-0.21 0.032,-0.265C0.032,-0.321 0.044,-0.37 0.068,-0.411C0.091,-0.452 0.124,-0.485 0.167,-0.508C0.21,-0.531 0.26,-0.542 0.317,-0.542C0.374,-0.542 0.424,-0.531 0.467,-0.508C0.51,-0.485 0.543,-0.452 0.567,-0.411C0.59,-0.37 0.602,-0.321 0.602,-0.265C0.602,-0.21 0.59,-0.161 0.567,-0.12C0.543,-0.078 0.51,-0.046 0.467,-0.023C0.424,0.001 0.374,0.012 0.317,0.012ZM0.317,-0.143C0.342,-0.143 0.362,-0.153 0.375,-0.174C0.388,-0.195 0.395,-0.225 0.395,-0.265C0.395,-0.292 0.392,-0.314 0.386,-0.332C0.38,-0.35 0.371,-0.364 0.36,-0.373C0.349,-0.382 0.334,-0.387 0.317,-0.387C0.3,-0.387 0.286,-0.382 0.275,-0.373C0.263,-0.364 0.254,-0.35 0.248,-0.332C0.242,-0.314 0.239,-0.292 0.239,-0.265C0.239,-0.225 0.246,-0.195 0.259,-0.174C0.272,-0.153 0.292,-0.143 0.317,-0.143Z" style="fill-rule:nonzero;"/>
            </g>
            <g transform="matrix(447.345,0,0,447.345,1259.37,987.931)">
                <path d="M0.151,0.012C0.116,0.012 0.088,0.001 0.065,-0.022C0.042,-0.044 0.03,-0.071 0.03,-0.104C0.03,-0.137 0.042,-0.164 0.065,-0.187C0.088,-0.209 0.116,-0.22 0.151,-0.22C0.185,-0.22 0.213,-0.209 0.236,-0.187C0.259,-0.164 0.27,-0.137 0.27,-0.104C0.27,-0.071 0.259,-0.044 0.236,-0.022C0.213,0.001 0.185,0.012 0.151,0.012Z" style="fill-rule:nonzero;"/>
            </g>
            <g transform="matrix(447.345,0,0,447.345,1393.58,987.931)">
                <path d="M0.497,-0.176C0.497,-0.141 0.488,-0.11 0.471,-0.082C0.453,-0.053 0.425,-0.031 0.388,-0.014C0.351,0.004 0.302,0.012 0.242,0.012C0.212,0.012 0.18,0.01 0.147,0.006C0.113,0.002 0.077,-0.006 0.038,-0.019L0.038,-0.178L0.159,-0.178L0.165,-0.119C0.174,-0.118 0.182,-0.118 0.189,-0.117C0.196,-0.116 0.203,-0.116 0.21,-0.116C0.233,-0.116 0.251,-0.12 0.264,-0.127C0.277,-0.134 0.283,-0.143 0.283,-0.155C0.283,-0.164 0.28,-0.171 0.273,-0.177C0.266,-0.183 0.255,-0.189 0.24,-0.195C0.225,-0.201 0.204,-0.208 0.177,-0.216C0.155,-0.223 0.134,-0.232 0.114,-0.243C0.093,-0.254 0.077,-0.268 0.064,-0.287C0.05,-0.306 0.044,-0.33 0.044,-0.36C0.044,-0.418 0.065,-0.463 0.107,-0.495C0.148,-0.526 0.21,-0.542 0.293,-0.542C0.322,-0.542 0.354,-0.54 0.387,-0.536C0.42,-0.532 0.453,-0.525 0.486,-0.515L0.481,-0.357L0.367,-0.357L0.361,-0.414C0.354,-0.415 0.348,-0.416 0.342,-0.417C0.335,-0.418 0.327,-0.418 0.318,-0.418C0.294,-0.418 0.277,-0.415 0.267,-0.41C0.256,-0.404 0.251,-0.395 0.251,-0.384C0.251,-0.373 0.258,-0.364 0.271,-0.357C0.284,-0.35 0.309,-0.34 0.346,-0.329C0.369,-0.322 0.393,-0.313 0.416,-0.302C0.439,-0.291 0.458,-0.275 0.474,-0.255C0.489,-0.235 0.497,-0.209 0.497,-0.176Z" style="fill-rule:nonzero;"/>
            </g>
            <g transform="matrix(447.345,0,0,447.345,1626.64,987.931)">
                <path d="M0.679,-0.125L0.679,-0L0.4,-0L0.4,-0.076L0.288,-0.257L0.441,-0.53L0.647,-0.53L0.647,-0.405L0.56,-0.395L0.495,-0.291L0.598,-0.135L0.679,-0.125ZM0.297,-0.762L0.297,-0L0.02,-0L0.02,-0.125L0.092,-0.133L0.092,-0.586L0.02,-0.586L0.02,-0.711L0.297,-0.762Z" style="fill-rule:nonzero;"/>
            </g>
            <g transform="matrix(447.345,0,0,447.345,1932.63,987.931)">
                <path d="M0.534,-0.036C0.52,-0.029 0.502,-0.021 0.479,-0.014C0.456,-0.007 0.431,-0 0.404,0.005C0.376,0.01 0.347,0.012 0.318,0.012C0.261,0.012 0.212,0.001 0.169,-0.022C0.126,-0.045 0.092,-0.077 0.068,-0.119C0.044,-0.16 0.032,-0.209 0.032,-0.265C0.032,-0.324 0.044,-0.375 0.069,-0.416C0.094,-0.457 0.127,-0.489 0.17,-0.51C0.212,-0.531 0.259,-0.542 0.312,-0.542C0.363,-0.542 0.406,-0.533 0.44,-0.515C0.474,-0.496 0.5,-0.472 0.518,-0.442C0.536,-0.411 0.547,-0.377 0.551,-0.34C0.555,-0.303 0.553,-0.265 0.545,-0.227C0.531,-0.223 0.512,-0.22 0.488,-0.217C0.463,-0.214 0.436,-0.213 0.407,-0.212C0.377,-0.211 0.347,-0.21 0.317,-0.211C0.287,-0.211 0.26,-0.212 0.236,-0.213C0.242,-0.193 0.251,-0.178 0.263,-0.167C0.275,-0.156 0.289,-0.148 0.305,-0.144C0.321,-0.14 0.338,-0.138 0.356,-0.138C0.381,-0.138 0.407,-0.14 0.436,-0.145C0.464,-0.15 0.489,-0.155 0.51,-0.161L0.534,-0.036ZM0.309,-0.407C0.3,-0.407 0.291,-0.405 0.281,-0.401C0.27,-0.396 0.261,-0.388 0.252,-0.377C0.243,-0.365 0.236,-0.347 0.232,-0.324L0.365,-0.324C0.368,-0.339 0.368,-0.353 0.365,-0.366C0.362,-0.378 0.355,-0.388 0.346,-0.396C0.337,-0.403 0.324,-0.407 0.309,-0.407Z" style="fill-rule:nonzero;"/>
            </g>
            <g transform="matrix(447.345,0,0,447.345,2192.09,987.931)">
                <path d="M0.534,-0.036C0.52,-0.029 0.502,-0.021 0.479,-0.014C0.456,-0.007 0.431,-0 0.404,0.005C0.376,0.01 0.347,0.012 0.318,0.012C0.261,0.012 0.212,0.001 0.169,-0.022C0.126,-0.045 0.092,-0.077 0.068,-0.119C0.044,-0.16 0.032,-0.209 0.032,-0.265C0.032,-0.324 0.044,-0.375 0.069,-0.416C0.094,-0.457 0.127,-0.489 0.17,-0.51C0.212,-0.531 0.259,-0.542 0.312,-0.542C0.363,-0.542 0.406,-0.533 0.44,-0.515C0.474,-0.496 0.5,-0.472 0.518,-0.442C0.536,-0.411 0.547,-0.377 0.551,-0.34C0.555,-0.303 0.553,-0.265 0.545,-0.227C0.531,-0.223 0.512,-0.22 0.488,-0.217C0.463,-0.214 0.436,-0.213 0.407,-0.212C0.377,-0.211 0.347,-0.21 0.317,-0.211C0.287,-0.211 0.26,-0.212 0.236,-0.213C0.242,-0.193 0.251,-0.178 0.263,-0.167C0.275,-0.156 0.289,-0.148 0.305,-0.144C0.321,-0.14 0.338,-0.138 0.356,-0.138C0.381,-0.138 0.407,-0.14 0.436,-0.145C0.464,-0.15 0.489,-0.155 0.51,-0.161L0.534,-0.036ZM0.309,-0.407C0.3,-0.407 0.291,-0.405 0.281,-0.401C0.27,-0.396 0.261,-0.388 0.252,-0.377C0.243,-0.365 0.236,-0.347 0.232,-0.324L0.365,-0.324C0.368,-0.339 0.368,-0.353 0.365,-0.366C0.362,-0.378 0.355,-0.388 0.346,-0.396C0.337,-0.403 0.324,-0.407 0.309,-0.407Z" style="fill-rule:nonzero;"/>
            </g>
            <g transform="matrix(447.345,0,0,447.345,2453.78,987.931)">
                <path d="M0.025,-0.625L0.015,-0.75L0.278,-0.75L0.278,0.12L0.015,0.12L0.025,-0.005L0.109,-0.005L0.109,-0.625L0.025,-0.625Z" style="fill-rule:nonzero;"/>
            </g>
        </g>
    </g>
</svg>
